<svg width="30" height="30" viewBox="0 0 30 30" fill="none" xmlns="http://www.w3.org/2000/svg">
<path d="M29 15C29 22.732 22.732 29 15 29C7.26801 29 1 22.732 1 15C1 7.26801 7.26801 1 15 1C22.732 1 29 7.26801 29 15Z" stroke="black" stroke-width="2"/>
<path d="M15.9488 22.1978V16.0508H18.0225L18.3308 13.6441H15.9488V12.1111C15.9488 11.4166 16.1423 10.9411 17.139 10.9411H18.402V8.79533C17.7875 8.72947 17.1698 8.69767 16.5518 8.70008C14.7188 8.70008 13.4603 9.81908 13.4603 11.8733V13.6396H11.4V16.0463H13.4648V22.1978H15.9488Z" fill="black"/>
</svg>
