<svg width="30" height="30" viewBox="0 0 30 30" fill="none" xmlns="http://www.w3.org/2000/svg">
<path d="M29 15C29 22.732 22.732 29 15 29C7.26801 29 1 22.732 1 15C1 7.26801 7.26801 1 15 1C22.732 1 29 7.26801 29 15Z" stroke="black" stroke-width="2"/>
<path d="M23.0295 10.6421C22.4032 10.9196 21.7305 11.1071 21.0233 11.1919C21.753 10.7552 22.299 10.068 22.5593 9.25839C21.8736 9.66563 21.1233 9.95229 20.3408 10.1059C19.8145 9.54404 19.1175 9.17163 18.358 9.04649C17.5984 8.92136 16.8188 9.05048 16.1402 9.41383C15.4615 9.77717 14.9218 10.3544 14.6049 11.0559C14.2879 11.7574 14.2114 12.544 14.3872 13.2934C12.998 13.2236 11.639 12.8626 10.3983 12.2336C9.15767 11.6046 8.06313 10.7218 7.18575 9.64239C6.88575 10.1599 6.71325 10.7599 6.71325 11.3989C6.71292 11.9741 6.85457 12.5406 7.12566 13.0479C7.39674 13.5553 7.78887 13.9879 8.26725 14.3074C7.71246 14.2897 7.1699 14.1398 6.68475 13.8701V13.9151C6.68469 14.7219 6.96377 15.5039 7.47464 16.1284C7.9855 16.7528 8.69668 17.1813 9.4875 17.3411C8.97284 17.4804 8.43325 17.5009 7.9095 17.4011C8.13262 18.0953 8.56725 18.7024 9.15253 19.1373C9.7378 19.5723 10.4444 19.8133 11.1735 19.8266C9.93588 20.7982 8.40742 21.3252 6.834 21.3229C6.55529 21.323 6.27681 21.3067 6 21.2741C7.59711 22.301 9.45626 22.846 11.355 22.8439C17.7825 22.8439 21.2963 17.5204 21.2963 12.9034C21.2963 12.7534 21.2925 12.6019 21.2858 12.4519C21.9692 11.9576 22.5592 11.3456 23.028 10.6444L23.0295 10.6421V10.6421Z" fill="black"/>
</svg>
